STARTFONT 2.1
FONT -barbaross-creeper-Medium-R-Normal--13-101-100-100-C-70-ISO8859-1
SIZE 10 100 100
FONTBOUNDINGBOX 7 13 0 -3
STARTPROPERTIES 24
FONTNAME_REGISTRY ""
FOUNDRY "barbaross"
FAMILY_NAME "creeper"
WEIGHT_NAME "Medium"
SLANT "R"
SETWIDTH_NAME "Normal"
ADD_STYLE_NAME ""
PIXEL_SIZE 13
POINT_SIZE 101
RESOLUTION_X 100
RESOLUTION_Y 100
SPACING "C"
AVERAGE_WIDTH 70
CHARSET_REGISTRY "ISO8859"
CHARSET_ENCODING "1"
COPYRIGHT "GPLv2"
CAP_HEIGHT 8
X_HEIGHT 6
WEIGHT 10
QUAD_WIDTH 7
_GBDFED_INFO "Edited with gbdfed 1.6."
DEFAULT_CHAR 0
FONT_DESCENT 3
FONT_ASCENT 10
ENDPROPERTIES
CHARS 223
STARTCHAR U+0000
ENCODING 0
SWIDTH 504 0
DWIDTH 7 0
BBX 7 13 0 -3
BITMAP
00
00
00
7C
44
44
44
44
44
44
7C
00
00
ENDCHAR
STARTCHAR U+0001
ENCODING 1
SWIDTH 504 0
DWIDTH 7 0
BBX 7 13 0 -3
BITMAP
00
00
00
7C
44
44
44
44
44
44
7C
00
00
ENDCHAR
STARTCHAR U+0002
ENCODING 2
SWIDTH 504 0
DWIDTH 7 0
BBX 7 13 0 -3
BITMAP
54
AA
54
AA
54
AA
54
AA
54
AA
54
AA
54
ENDCHAR
STARTCHAR U+0003
ENCODING 3
SWIDTH 504 0
DWIDTH 7 0
BBX 7 13 0 -3
BITMAP
00
00
00
7C
44
44
44
44
44
44
7C
00
00
ENDCHAR
STARTCHAR U+0004
ENCODING 4
SWIDTH 504 0
DWIDTH 7 0
BBX 7 13 0 -3
BITMAP
00
00
00
7C
44
44
44
44
44
44
7C
00
00
ENDCHAR
STARTCHAR U+0005
ENCODING 5
SWIDTH 504 0
DWIDTH 7 0
BBX 7 13 0 -3
BITMAP
00
00
00
7C
44
44
44
44
44
44
7C
00
00
ENDCHAR
STARTCHAR U+0006
ENCODING 6
SWIDTH 504 0
DWIDTH 7 0
BBX 7 13 0 -3
BITMAP
00
00
00
7C
44
44
44
44
44
44
7C
00
00
ENDCHAR
STARTCHAR U+0007
ENCODING 7
SWIDTH 504 0
DWIDTH 7 0
BBX 7 13 0 -3
BITMAP
00
00
00
7C
44
44
44
44
44
44
7C
00
00
ENDCHAR
STARTCHAR U+0008
ENCODING 8
SWIDTH 504 0
DWIDTH 7 0
BBX 7 13 0 -3
BITMAP
00
00
00
7C
44
44
44
44
44
44
7C
00
00
ENDCHAR
STARTCHAR U+0009
ENCODING 9
SWIDTH 504 0
DWIDTH 7 0
BBX 7 13 0 -3
BITMAP
00
00
00
7C
44
44
44
44
44
44
7C
00
00
ENDCHAR
STARTCHAR U+000a
ENCODING 10
SWIDTH 504 0
DWIDTH 7 0
BBX 7 13 0 -3
BITMAP
00
00
00
7C
44
44
44
44
44
44
7C
00
00
ENDCHAR
STARTCHAR U+000b
ENCODING 11
SWIDTH 504 0
DWIDTH 7 0
BBX 7 13 0 -3
BITMAP
10
10
10
10
10
10
10
F0
00
00
00
00
00
ENDCHAR
STARTCHAR U+000c
ENCODING 12
SWIDTH 504 0
DWIDTH 7 0
BBX 7 13 0 -3
BITMAP
00
00
00
00
00
00
00
F0
10
10
10
10
10
ENDCHAR
STARTCHAR U+000d
ENCODING 13
SWIDTH 504 0
DWIDTH 7 0
BBX 7 13 0 -3
BITMAP
00
00
00
00
00
00
00
1E
10
10
10
10
10
ENDCHAR
STARTCHAR U+000e
ENCODING 14
SWIDTH 504 0
DWIDTH 7 0
BBX 7 13 0 -3
BITMAP
10
10
10
10
10
10
10
1E
00
00
00
00
00
ENDCHAR
STARTCHAR U+000f
ENCODING 15
SWIDTH 504 0
DWIDTH 7 0
BBX 7 13 0 -3
BITMAP
10
10
10
10
10
10
10
FE
10
10
10
10
10
ENDCHAR
STARTCHAR U+0010
ENCODING 16
SWIDTH 504 0
DWIDTH 7 0
BBX 7 13 0 -3
BITMAP
FE
00
00
00
00
00
00
00
00
00
00
00
00
ENDCHAR
STARTCHAR U+0011
ENCODING 17
SWIDTH 504 0
DWIDTH 7 0
BBX 7 13 0 -3
BITMAP
00
00
00
00
FE
00
00
00
00
00
00
00
00
ENDCHAR
STARTCHAR U+0012
ENCODING 18
SWIDTH 504 0
DWIDTH 7 0
BBX 7 13 0 -3
BITMAP
00
00
00
00
00
00
00
FE
00
00
00
00
00
ENDCHAR
STARTCHAR U+0013
ENCODING 19
SWIDTH 504 0
DWIDTH 7 0
BBX 7 13 0 -3
BITMAP
00
00
00
00
00
00
00
00
00
00
FE
00
00
ENDCHAR
STARTCHAR U+0014
ENCODING 20
SWIDTH 504 0
DWIDTH 7 0
BBX 7 13 0 -3
BITMAP
00
00
00
00
00
00
00
00
00
00
00
00
00
ENDCHAR
STARTCHAR U+0015
ENCODING 21
SWIDTH 504 0
DWIDTH 7 0
BBX 7 13 0 -3
BITMAP
10
10
10
10
10
10
10
1E
10
10
10
10
10
ENDCHAR
STARTCHAR U+0016
ENCODING 22
SWIDTH 504 0
DWIDTH 7 0
BBX 7 13 0 -3
BITMAP
10
10
10
10
10
10
10
F0
10
10
10
10
10
ENDCHAR
STARTCHAR U+0017
ENCODING 23
SWIDTH 504 0
DWIDTH 7 0
BBX 7 13 0 -3
BITMAP
10
10
10
10
10
10
10
FE
00
00
00
00
00
ENDCHAR
STARTCHAR U+0018
ENCODING 24
SWIDTH 504 0
DWIDTH 7 0
BBX 7 13 0 -3
BITMAP
00
00
00
00
00
00
00
FE
10
10
10
10
10
ENDCHAR
STARTCHAR U+0019
ENCODING 25
SWIDTH 504 0
DWIDTH 7 0
BBX 7 13 0 -3
BITMAP
10
10
10
10
10
10
10
10
10
10
10
10
10
ENDCHAR
STARTCHAR U+001a
ENCODING 26
SWIDTH 504 0
DWIDTH 7 0
BBX 7 13 0 -3
BITMAP
00
00
00
7C
44
44
44
44
44
44
7C
00
00
ENDCHAR
STARTCHAR U+001b
ENCODING 27
SWIDTH 504 0
DWIDTH 7 0
BBX 7 13 0 -3
BITMAP
00
00
00
7C
44
44
44
44
44
44
7C
00
00
ENDCHAR
STARTCHAR U+001c
ENCODING 28
SWIDTH 504 0
DWIDTH 7 0
BBX 7 13 0 -3
BITMAP
00
00
00
7C
44
44
44
44
44
44
7C
00
00
ENDCHAR
STARTCHAR U+001d
ENCODING 29
SWIDTH 504 0
DWIDTH 7 0
BBX 7 13 0 -3
BITMAP
00
00
00
7C
44
44
44
44
44
44
7C
00
00
ENDCHAR
STARTCHAR U+001e
ENCODING 30
SWIDTH 504 0
DWIDTH 7 0
BBX 7 13 0 -3
BITMAP
00
00
00
7C
44
44
44
44
44
44
7C
00
00
ENDCHAR
STARTCHAR U+001f
ENCODING 31
SWIDTH 504 0
DWIDTH 7 0
BBX 7 13 0 -3
BITMAP
00
00
00
7C
44
44
44
44
44
44
7C
00
00
ENDCHAR
STARTCHAR U+0020
ENCODING 32
SWIDTH 504 0
DWIDTH 7 0
BBX 7 13 0 -3
BITMAP
00
00
00
00
00
00
00
00
00
00
00
00
00
ENDCHAR
STARTCHAR U+0021
ENCODING 33
SWIDTH 504 0
DWIDTH 7 0
BBX 7 13 0 -3
BITMAP
00
00
00
10
10
10
10
10
00
00
10
00
00
ENDCHAR
STARTCHAR U+0022
ENCODING 34
SWIDTH 504 0
DWIDTH 7 0
BBX 7 13 0 -3
BITMAP
00
00
28
28
28
00
00
00
00
00
00
00
00
ENDCHAR
STARTCHAR U+0023
ENCODING 35
SWIDTH 504 0
DWIDTH 7 0
BBX 7 13 0 -3
BITMAP
00
00
00
28
28
7C
28
28
7C
28
28
00
00
ENDCHAR
STARTCHAR U+0024
ENCODING 36
SWIDTH 504 0
DWIDTH 7 0
BBX 7 13 0 -3
BITMAP
00
00
00
10
38
54
50
38
14
54
38
10
00
ENDCHAR
STARTCHAR U+0025
ENCODING 37
SWIDTH 504 0
DWIDTH 7 0
BBX 7 13 0 -3
BITMAP
00
00
48
A8
50
10
20
28
54
48
00
00
00
ENDCHAR
STARTCHAR U+0026
ENCODING 38
SWIDTH 504 0
DWIDTH 7 0
BBX 7 13 0 -3
BITMAP
00
00
00
20
50
50
20
54
48
48
3C
00
00
ENDCHAR
STARTCHAR U+0027
ENCODING 39
SWIDTH 504 0
DWIDTH 7 0
BBX 7 13 0 -3
BITMAP
00
00
10
10
10
00
00
00
00
00
00
00
00
ENDCHAR
STARTCHAR U+0028
ENCODING 40
SWIDTH 504 0
DWIDTH 7 0
BBX 7 13 0 -3
BITMAP
00
00
04
08
10
10
10
10
10
10
08
04
00
ENDCHAR
STARTCHAR U+0029
ENCODING 41
SWIDTH 504 0
DWIDTH 7 0
BBX 7 13 0 -3
BITMAP
00
00
40
20
10
10
10
10
10
10
20
40
00
ENDCHAR
STARTCHAR U+002A
ENCODING 42
SWIDTH 504 0
DWIDTH 7 0
BBX 7 13 0 -3
BITMAP
00
00
00
00
00
28
10
7C
10
28
00
00
00
ENDCHAR
STARTCHAR U+002B
ENCODING 43
SWIDTH 504 0
DWIDTH 7 0
BBX 7 13 0 -3
BITMAP
00
00
00
00
00
10
10
7C
10
10
00
00
00
ENDCHAR
STARTCHAR U+002C
ENCODING 44
SWIDTH 504 0
DWIDTH 7 0
BBX 7 13 0 -3
BITMAP
00
00
00
00
00
00
00
00
00
10
10
20
00
ENDCHAR
STARTCHAR U+002D
ENCODING 45
SWIDTH 504 0
DWIDTH 7 0
BBX 7 13 0 -3
BITMAP
00
00
00
00
00
00
00
7C
00
00
00
00
00
ENDCHAR
STARTCHAR U+002E
ENCODING 46
SWIDTH 504 0
DWIDTH 7 0
BBX 7 13 0 -3
BITMAP
00
00
00
00
00
00
00
00
00
10
10
00
00
ENDCHAR
STARTCHAR U+002F
ENCODING 47
SWIDTH 504 0
DWIDTH 7 0
BBX 7 13 0 -3
BITMAP
00
00
00
08
08
10
10
20
20
40
40
00
00
ENDCHAR
STARTCHAR U+0030
ENCODING 48
SWIDTH 504 0
DWIDTH 7 0
BBX 7 13 0 -3
BITMAP
00
00
00
38
44
44
4C
54
64
44
38
00
00
ENDCHAR
STARTCHAR U+0031
ENCODING 49
SWIDTH 504 0
DWIDTH 7 0
BBX 7 13 0 -3
BITMAP
00
00
00
10
30
10
10
10
10
10
10
00
00
ENDCHAR
STARTCHAR U+0032
ENCODING 50
SWIDTH 504 0
DWIDTH 7 0
BBX 7 13 0 -3
BITMAP
00
00
00
38
44
44
08
10
20
40
7C
00
00
ENDCHAR
STARTCHAR U+0033
ENCODING 51
SWIDTH 504 0
DWIDTH 7 0
BBX 7 13 0 -3
BITMAP
00
00
00
7C
04
0C
18
04
04
44
38
00
00
ENDCHAR
STARTCHAR U+0034
ENCODING 52
SWIDTH 504 0
DWIDTH 7 0
BBX 7 13 0 -3
BITMAP
00
00
00
08
18
28
48
48
7C
08
08
00
00
ENDCHAR
STARTCHAR U+0035
ENCODING 53
SWIDTH 504 0
DWIDTH 7 0
BBX 7 13 0 -3
BITMAP
00
00
00
7C
40
78
44
04
04
44
38
00
00
ENDCHAR
STARTCHAR U+0036
ENCODING 54
SWIDTH 504 0
DWIDTH 7 0
BBX 7 13 0 -3
BITMAP
00
00
00
38
44
40
78
44
44
44
38
00
00
ENDCHAR
STARTCHAR U+0037
ENCODING 55
SWIDTH 504 0
DWIDTH 7 0
BBX 7 13 0 -3
BITMAP
00
00
00
7C
04
04
08
08
10
10
10
00
00
ENDCHAR
STARTCHAR U+0038
ENCODING 56
SWIDTH 504 0
DWIDTH 7 0
BBX 7 13 0 -3
BITMAP
00
00
00
38
44
44
38
44
44
44
38
00
00
ENDCHAR
STARTCHAR U+0039
ENCODING 57
SWIDTH 504 0
DWIDTH 7 0
BBX 7 13 0 -3
BITMAP
00
00
00
38
44
44
44
3C
04
44
38
00
00
ENDCHAR
STARTCHAR U+003A
ENCODING 58
SWIDTH 504 0
DWIDTH 7 0
BBX 7 13 0 -3
BITMAP
00
00
00
00
00
10
10
00
00
10
10
00
00
ENDCHAR
STARTCHAR U+003B
ENCODING 59
SWIDTH 504 0
DWIDTH 7 0
BBX 7 13 0 -3
BITMAP
00
00
00
00
00
10
10
00
00
10
10
20
00
ENDCHAR
STARTCHAR U+003C
ENCODING 60
SWIDTH 504 0
DWIDTH 7 0
BBX 7 13 0 -3
BITMAP
00
00
00
00
04
08
10
20
10
08
04
00
00
ENDCHAR
STARTCHAR U+003D
ENCODING 61
SWIDTH 504 0
DWIDTH 7 0
BBX 7 13 0 -3
BITMAP
00
00
00
00
00
00
7C
00
7C
00
00
00
00
ENDCHAR
STARTCHAR U+003E
ENCODING 62
SWIDTH 504 0
DWIDTH 7 0
BBX 7 13 0 -3
BITMAP
00
00
00
00
40
20
10
08
10
20
40
00
00
ENDCHAR
STARTCHAR U+003F
ENCODING 63
SWIDTH 504 0
DWIDTH 7 0
BBX 7 13 0 -3
BITMAP
00
00
00
78
04
04
1C
10
10
00
10
00
00
ENDCHAR
STARTCHAR U+0040
ENCODING 64
SWIDTH 504 0
DWIDTH 7 0
BBX 7 13 0 -3
BITMAP
00
00
00
00
7C
44
5C
5C
5C
40
7C
00
00
ENDCHAR
STARTCHAR U+0041
ENCODING 65
SWIDTH 504 0
DWIDTH 7 0
BBX 7 13 0 -3
BITMAP
00
00
00
38
44
44
44
7C
44
44
44
00
00
ENDCHAR
STARTCHAR U+0042
ENCODING 66
SWIDTH 504 0
DWIDTH 7 0
BBX 7 13 0 -3
BITMAP
00
00
00
70
48
48
78
44
44
44
78
00
00
ENDCHAR
STARTCHAR U+0043
ENCODING 67
SWIDTH 504 0
DWIDTH 7 0
BBX 7 13 0 -3
BITMAP
00
00
00
38
44
40
40
40
40
44
38
00
00
ENDCHAR
STARTCHAR U+0044
ENCODING 68
SWIDTH 504 0
DWIDTH 7 0
BBX 7 13 0 -3
BITMAP
00
00
00
70
48
44
44
44
44
48
70
00
00
ENDCHAR
STARTCHAR U+0045
ENCODING 69
SWIDTH 504 0
DWIDTH 7 0
BBX 7 13 0 -3
BITMAP
00
00
00
7C
40
40
70
40
40
40
7C
00
00
ENDCHAR
STARTCHAR U+0046
ENCODING 70
SWIDTH 504 0
DWIDTH 7 0
BBX 7 13 0 -3
BITMAP
00
00
00
7C
40
40
70
40
40
40
40
00
00
ENDCHAR
STARTCHAR U+0047
ENCODING 71
SWIDTH 504 0
DWIDTH 7 0
BBX 7 13 0 -3
BITMAP
00
00
00
38
44
40
40
5C
44
44
38
00
00
ENDCHAR
STARTCHAR U+0048
ENCODING 72
SWIDTH 504 0
DWIDTH 7 0
BBX 7 13 0 -3
BITMAP
00
00
00
44
44
44
7C
44
44
44
44
00
00
ENDCHAR
STARTCHAR U+0049
ENCODING 73
SWIDTH 504 0
DWIDTH 7 0
BBX 7 13 0 -3
BITMAP
00
00
00
7C
10
10
10
10
10
10
7C
00
00
ENDCHAR
STARTCHAR U+004A
ENCODING 74
SWIDTH 504 0
DWIDTH 7 0
BBX 7 13 0 -3
BITMAP
00
00
00
3C
04
04
04
04
04
44
38
00
00
ENDCHAR
STARTCHAR U+004B
ENCODING 75
SWIDTH 504 0
DWIDTH 7 0
BBX 7 13 0 -3
BITMAP
00
00
00
48
50
60
50
50
48
48
48
00
00
ENDCHAR
STARTCHAR U+004C
ENCODING 76
SWIDTH 504 0
DWIDTH 7 0
BBX 7 13 0 -3
BITMAP
00
00
00
40
40
40
40
40
40
40
7C
00
00
ENDCHAR
STARTCHAR U+004D
ENCODING 77
SWIDTH 504 0
DWIDTH 7 0
BBX 7 13 0 -3
BITMAP
00
00
00
44
6C
7C
54
44
44
44
44
00
00
ENDCHAR
STARTCHAR U+004E
ENCODING 78
SWIDTH 504 0
DWIDTH 7 0
BBX 7 13 0 -3
BITMAP
00
00
00
44
64
64
54
4C
4C
44
44
00
00
ENDCHAR
STARTCHAR U+004F
ENCODING 79
SWIDTH 504 0
DWIDTH 7 0
BBX 7 13 0 -3
BITMAP
00
00
00
38
44
44
44
44
44
44
38
00
00
ENDCHAR
STARTCHAR U+0050
ENCODING 80
SWIDTH 504 0
DWIDTH 7 0
BBX 7 13 0 -3
BITMAP
00
00
00
78
44
44
44
78
40
40
40
00
00
ENDCHAR
STARTCHAR U+0051
ENCODING 81
SWIDTH 504 0
DWIDTH 7 0
BBX 7 13 0 -3
BITMAP
00
00
00
38
44
44
44
44
44
4C
3C
04
00
ENDCHAR
STARTCHAR U+0052
ENCODING 82
SWIDTH 504 0
DWIDTH 7 0
BBX 7 13 0 -3
BITMAP
00
00
00
78
44
44
44
78
50
48
44
00
00
ENDCHAR
STARTCHAR U+0053
ENCODING 83
SWIDTH 504 0
DWIDTH 7 0
BBX 7 13 0 -3
BITMAP
00
00
00
38
44
40
38
04
04
44
38
00
00
ENDCHAR
STARTCHAR U+0054
ENCODING 84
SWIDTH 504 0
DWIDTH 7 0
BBX 7 13 0 -3
BITMAP
00
00
00
7C
10
10
10
10
10
10
10
00
00
ENDCHAR
STARTCHAR U+0055
ENCODING 85
SWIDTH 504 0
DWIDTH 7 0
BBX 7 13 0 -3
BITMAP
00
00
00
44
44
44
44
44
44
44
3C
00
00
ENDCHAR
STARTCHAR U+0056
ENCODING 86
SWIDTH 504 0
DWIDTH 7 0
BBX 7 13 0 -3
BITMAP
00
00
00
44
44
44
44
44
44
28
10
00
00
ENDCHAR
STARTCHAR U+0057
ENCODING 87
SWIDTH 504 0
DWIDTH 7 0
BBX 7 13 0 -3
BITMAP
00
00
00
44
44
44
44
54
7C
6C
44
00
00
ENDCHAR
STARTCHAR U+0058
ENCODING 88
SWIDTH 504 0
DWIDTH 7 0
BBX 7 13 0 -3
BITMAP
00
00
00
44
44
38
38
44
44
44
44
00
00
ENDCHAR
STARTCHAR U+0059
ENCODING 89
SWIDTH 504 0
DWIDTH 7 0
BBX 7 13 0 -3
BITMAP
00
00
00
44
44
44
44
3C
04
44
3C
00
00
ENDCHAR
STARTCHAR U+005A
ENCODING 90
SWIDTH 504 0
DWIDTH 7 0
BBX 7 13 0 -3
BITMAP
00
00
00
7C
04
04
08
10
20
40
7C
00
00
ENDCHAR
STARTCHAR U+005B
ENCODING 91
SWIDTH 504 0
DWIDTH 7 0
BBX 7 13 0 -3
BITMAP
00
00
1C
10
10
10
10
10
10
10
10
1C
00
ENDCHAR
STARTCHAR U+005C
ENCODING 92
SWIDTH 504 0
DWIDTH 7 0
BBX 7 13 0 -3
BITMAP
00
00
00
40
40
20
20
10
10
08
08
00
00
ENDCHAR
STARTCHAR U+005D
ENCODING 93
SWIDTH 504 0
DWIDTH 7 0
BBX 7 13 0 -3
BITMAP
00
00
70
10
10
10
10
10
10
10
10
70
00
ENDCHAR
STARTCHAR U+005E
ENCODING 94
SWIDTH 504 0
DWIDTH 7 0
BBX 7 13 0 -3
BITMAP
00
00
10
28
44
00
00
00
00
00
00
00
00
ENDCHAR
STARTCHAR U+005F
ENCODING 95
SWIDTH 504 0
DWIDTH 7 0
BBX 7 13 0 -3
BITMAP
00
00
00
00
00
00
00
00
00
00
7C
00
00
ENDCHAR
STARTCHAR U+0060
ENCODING 96
SWIDTH 504 0
DWIDTH 7 0
BBX 7 13 0 -3
BITMAP
00
00
20
10
08
00
00
00
00
00
00
00
00
ENDCHAR
STARTCHAR U+0061
ENCODING 97
SWIDTH 504 0
DWIDTH 7 0
BBX 7 13 0 -3
BITMAP
00
00
00
00
00
3C
44
44
44
44
3C
00
00
ENDCHAR
STARTCHAR U+0062
ENCODING 98
SWIDTH 504 0
DWIDTH 7 0
BBX 7 13 0 -3
BITMAP
00
00
00
40
40
78
44
44
44
44
78
00
00
ENDCHAR
STARTCHAR U+0063
ENCODING 99
SWIDTH 504 0
DWIDTH 7 0
BBX 7 13 0 -3
BITMAP
00
00
00
00
00
38
44
40
40
44
38
00
00
ENDCHAR
STARTCHAR U+0064
ENCODING 100
SWIDTH 504 0
DWIDTH 7 0
BBX 7 13 0 -3
BITMAP
00
00
00
04
04
3C
44
44
44
44
3C
00
00
ENDCHAR
STARTCHAR U+0065
ENCODING 101
SWIDTH 504 0
DWIDTH 7 0
BBX 7 13 0 -3
BITMAP
00
00
00
00
00
38
44
7C
40
40
3C
00
00
ENDCHAR
STARTCHAR U+0066
ENCODING 102
SWIDTH 504 0
DWIDTH 7 0
BBX 7 13 0 -3
BITMAP
00
00
00
18
24
20
78
20
20
20
20
20
40
ENDCHAR
STARTCHAR U+0067
ENCODING 103
SWIDTH 504 0
DWIDTH 7 0
BBX 7 13 0 -3
BITMAP
00
00
00
00
00
3C
44
44
44
44
3C
04
38
ENDCHAR
STARTCHAR U+0068
ENCODING 104
SWIDTH 504 0
DWIDTH 7 0
BBX 7 13 0 -3
BITMAP
00
00
00
40
40
78
44
44
44
44
44
00
00
ENDCHAR
STARTCHAR U+0069
ENCODING 105
SWIDTH 504 0
DWIDTH 7 0
BBX 7 13 0 -3
BITMAP
00
00
00
10
00
30
10
10
10
10
18
00
00
ENDCHAR
STARTCHAR U+006A
ENCODING 106
SWIDTH 504 0
DWIDTH 7 0
BBX 7 13 0 -3
BITMAP
00
00
04
00
0C
04
04
04
04
04
04
18
00
ENDCHAR
STARTCHAR U+006B
ENCODING 107
SWIDTH 504 0
DWIDTH 7 0
BBX 7 13 0 -3
BITMAP
00
00
00
40
40
48
50
60
50
48
44
00
00
ENDCHAR
STARTCHAR U+006C
ENCODING 108
SWIDTH 504 0
DWIDTH 7 0
BBX 7 13 0 -3
BITMAP
00
00
00
10
10
10
10
10
10
10
08
00
00
ENDCHAR
STARTCHAR U+006D
ENCODING 109
SWIDTH 504 0
DWIDTH 7 0
BBX 7 13 0 -3
BITMAP
00
00
00
00
00
44
6C
54
44
44
44
00
00
ENDCHAR
STARTCHAR U+006E
ENCODING 110
SWIDTH 504 0
DWIDTH 7 0
BBX 7 13 0 -3
BITMAP
00
00
00
00
00
78
44
44
44
44
44
00
00
ENDCHAR
STARTCHAR U+006F
ENCODING 111
SWIDTH 504 0
DWIDTH 7 0
BBX 7 13 0 -3
BITMAP
00
00
00
00
00
38
44
44
44
44
38
00
00
ENDCHAR
STARTCHAR U+0070
ENCODING 112
SWIDTH 504 0
DWIDTH 7 0
BBX 7 13 0 -3
BITMAP
00
00
00
00
00
78
44
44
44
44
78
40
40
ENDCHAR
STARTCHAR U+0071
ENCODING 113
SWIDTH 504 0
DWIDTH 7 0
BBX 7 13 0 -3
BITMAP
00
00
00
00
00
3C
44
44
44
44
3C
04
04
ENDCHAR
STARTCHAR U+0072
ENCODING 114
SWIDTH 504 0
DWIDTH 7 0
BBX 7 13 0 -3
BITMAP
00
00
00
00
00
78
44
40
40
40
40
00
00
ENDCHAR
STARTCHAR U+0073
ENCODING 115
SWIDTH 504 0
DWIDTH 7 0
BBX 7 13 0 -3
BITMAP
00
00
00
00
00
3C
40
38
04
04
78
00
00
ENDCHAR
STARTCHAR U+0074
ENCODING 116
SWIDTH 504 0
DWIDTH 7 0
BBX 7 13 0 -3
BITMAP
00
00
00
20
20
78
20
20
20
20
20
18
00
ENDCHAR
STARTCHAR U+0075
ENCODING 117
SWIDTH 504 0
DWIDTH 7 0
BBX 7 13 0 -3
BITMAP
00
00
00
00
00
44
44
44
44
44
3C
00
00
ENDCHAR
STARTCHAR U+0076
ENCODING 118
SWIDTH 504 0
DWIDTH 7 0
BBX 7 13 0 -3
BITMAP
00
00
00
00
00
44
44
44
44
28
10
00
00
ENDCHAR
STARTCHAR U+0077
ENCODING 119
SWIDTH 504 0
DWIDTH 7 0
BBX 7 13 0 -3
BITMAP
00
00
00
00
00
44
44
44
54
6C
44
00
00
ENDCHAR
STARTCHAR U+0078
ENCODING 120
SWIDTH 504 0
DWIDTH 7 0
BBX 7 13 0 -3
BITMAP
00
00
00
00
00
44
44
38
38
44
44
00
00
ENDCHAR
STARTCHAR U+0079
ENCODING 121
SWIDTH 504 0
DWIDTH 7 0
BBX 7 13 0 -3
BITMAP
00
00
00
00
00
44
44
44
44
44
3C
44
38
ENDCHAR
STARTCHAR U+007A
ENCODING 122
SWIDTH 504 0
DWIDTH 7 0
BBX 7 13 0 -3
BITMAP
00
00
00
00
00
7C
08
10
20
40
7C
00
00
ENDCHAR
STARTCHAR U+007B
ENCODING 123
SWIDTH 504 0
DWIDTH 7 0
BBX 7 13 0 -3
BITMAP
00
00
0C
10
10
10
20
10
10
10
10
0C
00
ENDCHAR
STARTCHAR U+007C
ENCODING 124
SWIDTH 504 0
DWIDTH 7 0
BBX 7 13 0 -3
BITMAP
00
00
00
10
10
10
10
10
10
10
10
00
00
ENDCHAR
STARTCHAR U+007D
ENCODING 125
SWIDTH 504 0
DWIDTH 7 0
BBX 7 13 0 -3
BITMAP
00
00
60
10
10
10
08
10
10
10
10
60
00
ENDCHAR
STARTCHAR U+007E
ENCODING 126
SWIDTH 504 0
DWIDTH 7 0
BBX 7 13 0 -3
BITMAP
00
00
00
00
20
54
08
00
00
00
00
00
00
ENDCHAR
STARTCHAR U+00A0
ENCODING 160
SWIDTH 504 0
DWIDTH 7 0
BBX 7 13 0 -3
BITMAP
00
00
00
00
00
00
00
00
00
00
00
00
00
ENDCHAR
STARTCHAR U+00A1
ENCODING 161
SWIDTH 504 0
DWIDTH 7 0
BBX 7 13 0 -3
BITMAP
00
00
10
00
00
10
10
10
10
10
00
00
00
ENDCHAR
STARTCHAR U+00A2
ENCODING 162
SWIDTH 504 0
DWIDTH 7 0
BBX 7 13 0 -3
BITMAP
00
00
00
00
10
38
54
50
50
54
38
10
00
ENDCHAR
STARTCHAR U+00A3
ENCODING 163
SWIDTH 504 0
DWIDTH 7 0
BBX 7 13 0 -3
BITMAP
00
00
00
18
24
20
30
20
20
34
2C
00
00
ENDCHAR
STARTCHAR U+00A4
ENCODING 164
SWIDTH 504 0
DWIDTH 7 0
BBX 7 13 0 -3
BITMAP
00
00
00
00
44
38
44
44
44
38
44
00
00
ENDCHAR
STARTCHAR U+00A5
ENCODING 165
SWIDTH 504 0
DWIDTH 7 0
BBX 7 13 0 -3
BITMAP
00
00
00
48
48
48
FC
48
FC
30
30
00
00
ENDCHAR
STARTCHAR U+00A6
ENCODING 166
SWIDTH 504 0
DWIDTH 7 0
BBX 7 13 0 -3
BITMAP
00
00
00
10
10
10
00
00
10
10
10
00
00
ENDCHAR
STARTCHAR U+00A7
ENCODING 167
SWIDTH 504 0
DWIDTH 7 0
BBX 7 13 0 -3
BITMAP
00
00
00
38
44
30
48
24
18
44
38
00
00
ENDCHAR
STARTCHAR U+00A8
ENCODING 168
SWIDTH 504 0
DWIDTH 7 0
BBX 7 13 0 -3
BITMAP
00
28
28
00
00
00
00
00
00
00
00
00
00
ENDCHAR
STARTCHAR U+00A9
ENCODING 169
SWIDTH 504 0
DWIDTH 7 0
BBX 7 13 0 -3
BITMAP
00
00
00
38
44
BA
A2
A2
BA
44
38
00
00
ENDCHAR
STARTCHAR U+00AA
ENCODING 170
SWIDTH 504 0
DWIDTH 7 0
BBX 7 13 0 -3
BITMAP
00
00
38
04
3C
44
3C
00
7C
00
00
00
00
ENDCHAR
STARTCHAR U+00AB
ENCODING 171
SWIDTH 504 0
DWIDTH 7 0
BBX 7 13 0 -3
BITMAP
00
00
00
00
00
14
28
50
28
14
00
00
00
ENDCHAR
STARTCHAR U+00AC
ENCODING 172
SWIDTH 504 0
DWIDTH 7 0
BBX 7 13 0 -3
BITMAP
00
00
00
00
00
7C
04
04
00
00
00
00
00
ENDCHAR
STARTCHAR U+00AD
ENCODING 173
SWIDTH 504 0
DWIDTH 7 0
BBX 7 13 0 -3
BITMAP
00
00
00
00
00
00
00
7C
00
00
00
00
00
ENDCHAR
STARTCHAR U+00AE
ENCODING 174
SWIDTH 504 0
DWIDTH 7 0
BBX 7 13 0 -3
BITMAP
00
00
00
38
44
BA
A2
A2
A2
44
38
00
00
ENDCHAR
STARTCHAR U+00AF
ENCODING 175
SWIDTH 504 0
DWIDTH 7 0
BBX 7 13 0 -3
BITMAP
00
00
78
00
00
00
00
00
00
00
00
00
00
ENDCHAR
STARTCHAR U+00B0
ENCODING 176
SWIDTH 504 0
DWIDTH 7 0
BBX 7 13 0 -3
BITMAP
00
00
00
20
50
20
00
00
00
00
00
00
00
ENDCHAR
STARTCHAR U+00B1
ENCODING 177
SWIDTH 504 0
DWIDTH 7 0
BBX 7 13 0 -3
BITMAP
00
00
00
00
00
10
10
7C
10
10
7C
00
00
ENDCHAR
STARTCHAR U+00B2
ENCODING 178
SWIDTH 504 0
DWIDTH 7 0
BBX 7 13 0 -3
BITMAP
00
00
38
48
10
20
78
00
00
00
00
00
00
ENDCHAR
STARTCHAR U+00B3
ENCODING 179
SWIDTH 504 0
DWIDTH 7 0
BBX 7 13 0 -3
BITMAP
00
00
78
08
10
08
70
00
00
00
00
00
00
ENDCHAR
STARTCHAR U+00B4
ENCODING 180
SWIDTH 504 0
DWIDTH 7 0
BBX 7 13 0 -3
BITMAP
00
08
10
20
00
00
00
00
00
00
00
00
00
ENDCHAR
STARTCHAR U+00B5
ENCODING 181
SWIDTH 504 0
DWIDTH 7 0
BBX 7 13 0 -3
BITMAP
00
00
00
00
00
44
44
44
44
44
78
40
80
ENDCHAR
STARTCHAR U+00B6
ENCODING 182
SWIDTH 504 0
DWIDTH 7 0
BBX 7 13 0 -3
BITMAP
00
00
00
3C
54
54
54
34
14
14
14
18
00
ENDCHAR
STARTCHAR U+00B7
ENCODING 183
SWIDTH 504 0
DWIDTH 7 0
BBX 7 13 0 -3
BITMAP
00
00
00
00
00
00
10
10
00
00
00
00
00
ENDCHAR
STARTCHAR U+00B8
ENCODING 184
SWIDTH 504 0
DWIDTH 7 0
BBX 7 13 0 -3
BITMAP
00
00
00
00
00
00
00
00
00
20
10
10
60
ENDCHAR
STARTCHAR U+00B9
ENCODING 185
SWIDTH 504 0
DWIDTH 7 0
BBX 7 13 0 -3
BITMAP
00
00
60
20
20
20
70
00
00
00
00
00
00
ENDCHAR
STARTCHAR U+00BA
ENCODING 186
SWIDTH 504 0
DWIDTH 7 0
BBX 7 13 0 -3
BITMAP
00
00
30
48
48
48
30
00
78
00
00
00
00
ENDCHAR
STARTCHAR U+00BB
ENCODING 187
SWIDTH 504 0
DWIDTH 7 0
BBX 7 13 0 -3
BITMAP
00
00
00
00
00
50
28
14
28
50
00
00
00
ENDCHAR
STARTCHAR U+00BC
ENCODING 188
SWIDTH 504 0
DWIDTH 7 0
BBX 7 13 0 -3
BITMAP
00
10
10
10
10
00
7C
00
28
38
08
08
00
ENDCHAR
STARTCHAR U+00BD
ENCODING 189
SWIDTH 504 0
DWIDTH 7 0
BBX 7 13 0 -3
BITMAP
00
10
10
10
00
7C
00
18
24
08
10
3C
00
ENDCHAR
STARTCHAR U+00BE
ENCODING 190
SWIDTH 504 0
DWIDTH 7 0
BBX 7 13 0 -3
BITMAP
00
38
10
08
38
00
7C
00
28
38
08
08
00
ENDCHAR
STARTCHAR U+00BF
ENCODING 191
SWIDTH 504 0
DWIDTH 7 0
BBX 7 13 0 -3
BITMAP
00
00
00
10
00
10
10
10
60
40
38
00
00
ENDCHAR
STARTCHAR U+00C0
ENCODING 192
SWIDTH 504 0
DWIDTH 7 0
BBX 7 13 0 -3
BITMAP
20
10
00
38
44
44
44
7C
44
44
44
00
00
ENDCHAR
STARTCHAR U+00C1
ENCODING 193
SWIDTH 504 0
DWIDTH 7 0
BBX 7 13 0 -3
BITMAP
08
10
00
38
44
44
44
7C
44
44
44
00
00
ENDCHAR
STARTCHAR U+00C2
ENCODING 194
SWIDTH 504 0
DWIDTH 7 0
BBX 7 13 0 -3
BITMAP
10
28
00
38
44
44
44
7C
44
44
44
00
00
ENDCHAR
STARTCHAR U+00C3
ENCODING 195
SWIDTH 504 0
DWIDTH 7 0
BBX 7 13 0 -3
BITMAP
28
50
00
38
44
44
44
7C
44
44
44
00
00
ENDCHAR
STARTCHAR U+00C4
ENCODING 196
SWIDTH 504 0
DWIDTH 7 0
BBX 7 13 0 -3
BITMAP
00
28
00
38
44
44
44
7C
44
44
44
00
00
ENDCHAR
STARTCHAR U+00C5
ENCODING 197
SWIDTH 504 0
DWIDTH 7 0
BBX 7 13 0 -3
BITMAP
10
28
10
38
44
44
44
7C
44
44
44
00
00
ENDCHAR
STARTCHAR U+00C6
ENCODING 198
SWIDTH 504 0
DWIDTH 7 0
BBX 7 13 0 -3
BITMAP
00
00
00
3C
50
50
78
50
50
50
5C
00
00
ENDCHAR
STARTCHAR U+00C7
ENCODING 199
SWIDTH 504 0
DWIDTH 7 0
BBX 7 13 0 -3
BITMAP
00
00
00
38
44
40
40
40
40
44
38
10
30
ENDCHAR
STARTCHAR U+00C8
ENCODING 200
SWIDTH 504 0
DWIDTH 7 0
BBX 7 13 0 -3
BITMAP
20
10
00
7C
40
40
70
40
40
40
7C
00
00
ENDCHAR
STARTCHAR U+00C9
ENCODING 201
SWIDTH 504 0
DWIDTH 7 0
BBX 7 13 0 -3
BITMAP
08
10
00
7C
40
40
70
40
40
40
7C
00
00
ENDCHAR
STARTCHAR U+00CA
ENCODING 202
SWIDTH 504 0
DWIDTH 7 0
BBX 7 13 0 -3
BITMAP
10
28
00
7C
40
40
70
40
40
40
7C
00
00
ENDCHAR
STARTCHAR U+00CB
ENCODING 203
SWIDTH 504 0
DWIDTH 7 0
BBX 7 13 0 -3
BITMAP
00
28
00
7C
40
40
70
40
40
40
7C
00
00
ENDCHAR
STARTCHAR U+00CC
ENCODING 204
SWIDTH 504 0
DWIDTH 7 0
BBX 7 13 0 -3
BITMAP
20
10
00
7C
10
10
10
10
10
10
7C
00
00
ENDCHAR
STARTCHAR U+00CD
ENCODING 205
SWIDTH 504 0
DWIDTH 7 0
BBX 7 13 0 -3
BITMAP
08
10
00
7C
10
10
10
10
10
10
7C
00
00
ENDCHAR
STARTCHAR U+00CE
ENCODING 206
SWIDTH 504 0
DWIDTH 7 0
BBX 7 13 0 -3
BITMAP
10
28
00
7C
10
10
10
10
10
10
7C
00
00
ENDCHAR
STARTCHAR U+00CF
ENCODING 207
SWIDTH 504 0
DWIDTH 7 0
BBX 7 13 0 -3
BITMAP
00
28
00
7C
10
10
10
10
10
10
7C
00
00
ENDCHAR
STARTCHAR U+00D0
ENCODING 208
SWIDTH 504 0
DWIDTH 7 0
BBX 7 13 0 -3
BITMAP
00
00
00
70
48
44
F4
44
44
48
70
00
00
ENDCHAR
STARTCHAR U+00D1
ENCODING 209
SWIDTH 504 0
DWIDTH 7 0
BBX 7 13 0 -3
BITMAP
28
50
00
44
64
64
54
4C
4C
44
44
00
00
ENDCHAR
STARTCHAR U+00D2
ENCODING 210
SWIDTH 504 0
DWIDTH 7 0
BBX 7 13 0 -3
BITMAP
20
10
00
38
44
44
44
44
44
44
38
00
00
ENDCHAR
STARTCHAR U+00D3
ENCODING 211
SWIDTH 504 0
DWIDTH 7 0
BBX 7 13 0 -3
BITMAP
08
10
00
38
44
44
44
44
44
44
38
00
00
ENDCHAR
STARTCHAR U+00D4
ENCODING 212
SWIDTH 504 0
DWIDTH 7 0
BBX 7 13 0 -3
BITMAP
10
28
00
38
44
44
44
44
44
44
38
00
00
ENDCHAR
STARTCHAR U+00D5
ENCODING 213
SWIDTH 504 0
DWIDTH 7 0
BBX 7 13 0 -3
BITMAP
28
50
00
38
44
44
44
44
44
44
38
00
00
ENDCHAR
STARTCHAR U+00D6
ENCODING 214
SWIDTH 504 0
DWIDTH 7 0
BBX 7 13 0 -3
BITMAP
00
28
00
38
44
44
44
44
44
44
38
00
00
ENDCHAR
STARTCHAR U+00D7
ENCODING 215
SWIDTH 504 0
DWIDTH 7 0
BBX 7 13 0 -3
BITMAP
00
00
00
00
00
44
28
10
28
44
00
00
00
ENDCHAR
STARTCHAR U+00D8
ENCODING 216
SWIDTH 504 0
DWIDTH 7 0
BBX 7 13 0 -3
BITMAP
00
00
00
3A
46
4C
54
64
44
C4
B8
00
00
ENDCHAR
STARTCHAR U+00D9
ENCODING 217
SWIDTH 504 0
DWIDTH 7 0
BBX 7 13 0 -3
BITMAP
00
20
10
44
44
44
44
44
44
44
3C
00
00
ENDCHAR
STARTCHAR U+00DA
ENCODING 218
SWIDTH 504 0
DWIDTH 7 0
BBX 7 13 0 -3
BITMAP
00
08
10
44
44
44
44
44
44
44
3C
00
00
ENDCHAR
STARTCHAR U+00DB
ENCODING 219
SWIDTH 504 0
DWIDTH 7 0
BBX 7 13 0 -3
BITMAP
10
28
00
44
44
44
44
44
44
44
3C
00
00
ENDCHAR
STARTCHAR U+00DC
ENCODING 220
SWIDTH 504 0
DWIDTH 7 0
BBX 7 13 0 -3
BITMAP
00
28
00
44
44
44
44
44
44
44
3C
00
00
ENDCHAR
STARTCHAR U+00DD
ENCODING 221
SWIDTH 504 0
DWIDTH 7 0
BBX 7 13 0 -3
BITMAP
00
08
10
44
44
44
44
3C
04
44
3C
00
00
ENDCHAR
STARTCHAR U+00DE
ENCODING 222
SWIDTH 504 0
DWIDTH 7 0
BBX 7 13 0 -3
BITMAP
00
00
00
40
78
44
44
44
44
78
40
00
00
ENDCHAR
STARTCHAR U+00DF
ENCODING 223
SWIDTH 504 0
DWIDTH 7 0
BBX 7 13 0 -3
BITMAP
00
00
00
60
50
50
58
64
44
44
78
40
80
ENDCHAR
STARTCHAR U+00E0
ENCODING 224
SWIDTH 504 0
DWIDTH 7 0
BBX 7 13 0 -3
BITMAP
00
00
20
10
00
3C
44
44
44
44
3C
00
00
ENDCHAR
STARTCHAR U+00E1
ENCODING 225
SWIDTH 504 0
DWIDTH 7 0
BBX 7 13 0 -3
BITMAP
00
00
08
10
00
3C
44
44
44
44
3C
00
00
ENDCHAR
STARTCHAR U+00E2
ENCODING 226
SWIDTH 504 0
DWIDTH 7 0
BBX 7 13 0 -3
BITMAP
00
00
10
28
00
3C
44
44
44
44
3C
00
00
ENDCHAR
STARTCHAR U+00E3
ENCODING 227
SWIDTH 504 0
DWIDTH 7 0
BBX 7 13 0 -3
BITMAP
00
00
28
50
00
3C
44
44
44
44
3C
00
00
ENDCHAR
STARTCHAR U+00E4
ENCODING 228
SWIDTH 504 0
DWIDTH 7 0
BBX 7 13 0 -3
BITMAP
00
00
00
28
00
3C
44
44
44
44
3C
00
00
ENDCHAR
STARTCHAR U+00E5
ENCODING 229
SWIDTH 504 0
DWIDTH 7 0
BBX 7 13 0 -3
BITMAP
00
10
28
10
00
3C
44
44
44
44
3C
00
00
ENDCHAR
STARTCHAR U+00E6
ENCODING 230
SWIDTH 504 0
DWIDTH 7 0
BBX 7 13 0 -3
BITMAP
00
00
00
00
00
3C
50
7C
50
50
5C
00
00
ENDCHAR
STARTCHAR U+00E7
ENCODING 231
SWIDTH 504 0
DWIDTH 7 0
BBX 7 13 0 -3
BITMAP
00
00
00
00
00
38
44
40
40
44
38
10
30
ENDCHAR
STARTCHAR U+00E8
ENCODING 232
SWIDTH 504 0
DWIDTH 7 0
BBX 7 13 0 -3
BITMAP
00
00
20
10
00
38
44
7C
40
40
3C
00
00
ENDCHAR
STARTCHAR U+00E9
ENCODING 233
SWIDTH 504 0
DWIDTH 7 0
BBX 7 13 0 -3
BITMAP
00
00
08
10
00
38
44
7C
40
40
3C
00
00
ENDCHAR
STARTCHAR U+00EA
ENCODING 234
SWIDTH 504 0
DWIDTH 7 0
BBX 7 13 0 -3
BITMAP
00
00
10
28
00
38
44
7C
40
40
3C
00
00
ENDCHAR
STARTCHAR U+00EB
ENCODING 235
SWIDTH 504 0
DWIDTH 7 0
BBX 7 13 0 -3
BITMAP
00
00
00
28
00
38
44
7C
40
40
3C
00
00
ENDCHAR
STARTCHAR U+00EC
ENCODING 236
SWIDTH 504 0
DWIDTH 7 0
BBX 7 13 0 -3
BITMAP
00
00
20
10
00
30
10
10
10
10
18
00
00
ENDCHAR
STARTCHAR U+00ED
ENCODING 237
SWIDTH 504 0
DWIDTH 7 0
BBX 7 13 0 -3
BITMAP
00
00
08
10
00
30
10
10
10
10
18
00
00
ENDCHAR
STARTCHAR U+00EE
ENCODING 238
SWIDTH 504 0
DWIDTH 7 0
BBX 7 13 0 -3
BITMAP
00
00
10
28
00
30
10
10
10
10
18
00
00
ENDCHAR
STARTCHAR U+00EF
ENCODING 239
SWIDTH 504 0
DWIDTH 7 0
BBX 7 13 0 -3
BITMAP
00
00
00
28
00
30
10
10
10
10
18
00
00
ENDCHAR
STARTCHAR U+00F0
ENCODING 240
SWIDTH 504 0
DWIDTH 7 0
BBX 7 13 0 -3
BITMAP
00
50
20
50
00
38
44
44
44
44
38
00
00
ENDCHAR
STARTCHAR U+00F1
ENCODING 241
SWIDTH 504 0
DWIDTH 7 0
BBX 7 13 0 -3
BITMAP
00
00
28
50
00
78
44
44
44
44
44
00
00
ENDCHAR
STARTCHAR U+00F2
ENCODING 242
SWIDTH 504 0
DWIDTH 7 0
BBX 7 13 0 -3
BITMAP
00
00
20
10
00
38
44
44
44
44
38
00
00
ENDCHAR
STARTCHAR U+00F3
ENCODING 243
SWIDTH 504 0
DWIDTH 7 0
BBX 7 13 0 -3
BITMAP
00
00
08
10
00
38
44
44
44
44
38
00
00
ENDCHAR
STARTCHAR U+00F4
ENCODING 244
SWIDTH 504 0
DWIDTH 7 0
BBX 7 13 0 -3
BITMAP
00
00
10
28
00
38
44
44
44
44
38
00
00
ENDCHAR
STARTCHAR U+00F5
ENCODING 245
SWIDTH 504 0
DWIDTH 7 0
BBX 7 13 0 -3
BITMAP
00
00
28
50
00
38
44
44
44
44
38
00
00
ENDCHAR
STARTCHAR U+00F6
ENCODING 246
SWIDTH 504 0
DWIDTH 7 0
BBX 7 13 0 -3
BITMAP
00
00
00
28
00
38
44
44
44
44
38
00
00
ENDCHAR
STARTCHAR U+00F7
ENCODING 247
SWIDTH 504 0
DWIDTH 7 0
BBX 7 13 0 -3
BITMAP
00
00
00
00
10
10
00
7C
00
10
10
00
00
ENDCHAR
STARTCHAR U+00F8
ENCODING 248
SWIDTH 504 0
DWIDTH 7 0
BBX 7 13 0 -3
BITMAP
00
00
00
00
02
3C
4C
54
64
44
B8
00
00
ENDCHAR
STARTCHAR U+00F9
ENCODING 249
SWIDTH 504 0
DWIDTH 7 0
BBX 7 13 0 -3
BITMAP
00
00
20
10
00
44
44
44
44
44
3C
00
00
ENDCHAR
STARTCHAR U+00FA
ENCODING 250
SWIDTH 504 0
DWIDTH 7 0
BBX 7 13 0 -3
BITMAP
00
00
08
10
00
44
44
44
44
44
3C
00
00
ENDCHAR
STARTCHAR U+00FB
ENCODING 251
SWIDTH 504 0
DWIDTH 7 0
BBX 7 13 0 -3
BITMAP
00
00
10
28
00
44
44
44
44
44
3C
00
00
ENDCHAR
STARTCHAR U+00FC
ENCODING 252
SWIDTH 504 0
DWIDTH 7 0
BBX 7 13 0 -3
BITMAP
00
00
00
28
00
44
44
44
44
44
3C
00
00
ENDCHAR
STARTCHAR U+00FD
ENCODING 253
SWIDTH 504 0
DWIDTH 7 0
BBX 7 13 0 -3
BITMAP
00
00
08
10
00
44
44
44
44
44
3C
44
38
ENDCHAR
STARTCHAR U+00FE
ENCODING 254
SWIDTH 504 0
DWIDTH 7 0
BBX 7 13 0 -3
BITMAP
00
00
00
00
40
40
78
44
44
44
78
40
40
ENDCHAR
STARTCHAR U+00FF
ENCODING 255
SWIDTH 504 0
DWIDTH 7 0
BBX 7 13 0 -3
BITMAP
00
00
00
28
00
44
44
44
44
44
3C
44
38
ENDCHAR
ENDFONT
